<svg width="24" height="24" viewBox="0 0 24 24" fill="none" xmlns="http://www.w3.org/2000/svg">
<path d="M17.3683 16.0261L17.082 16.3763L17.4019 16.6961L23.3624 22.6567C23.4517 22.7505 23.5011 22.8755 23.5 23.0052C23.4988 23.136 23.4463 23.2612 23.3538 23.3538L23.7073 23.7073L23.3538 23.3538C23.2612 23.4463 23.136 23.4988 23.0052 23.5C22.8755 23.5011 22.7505 23.4517 22.6567 23.3624L16.6961 17.4019L16.3763 17.082L16.0261 17.3683C14.1376 18.9124 11.7279 19.6716 9.29543 19.4888C6.86292 19.3061 4.59372 18.1953 2.95718 16.3864C1.32065 14.5775 0.442001 12.2087 0.502974 9.77013C0.563946 7.33153 1.55988 5.00965 3.28477 3.28477C5.00965 1.55988 7.33153 0.563946 9.77013 0.502974C12.2087 0.442001 14.5775 1.32065 16.3864 2.95718C18.1953 4.59372 19.3061 6.86292 19.4888 9.29542C19.6716 11.7279 18.9124 14.1376 17.3683 16.0261ZM10.0238 18.5172H10.0243C12.276 18.5147 14.4347 17.6191 16.0269 16.0269C17.6191 14.4347 18.5147 12.276 18.5172 10.0243V10.0238C18.5172 8.34393 18.0191 6.70181 17.0858 5.30507C16.1525 3.90834 14.826 2.81971 13.2741 2.17686C11.7221 1.53402 10.0143 1.36582 8.36679 1.69354C6.71922 2.02126 5.20584 2.83018 4.01801 4.01801C2.83018 5.20584 2.02126 6.71922 1.69354 8.36679C1.36582 10.0143 1.53402 11.7221 2.17686 13.2741C2.81971 14.826 3.90834 16.1525 5.30507 17.0858C6.70181 18.0191 8.34393 18.5172 10.0238 18.5172Z" stroke="#9D9D9D"/>
</svg>
